<?xml version="1.0" encoding="UTF-8" standalone="no"?>
<!-- Created with Inkscape (http://www.inkscape.org/) -->

<svg
   width="111.95364"
   height="51.045387"
   viewBox="0 0 111.95364 51.045387"
   version="1.1"
   id="svg1"
   inkscape:export-filename="pit.svg"
   inkscape:export-xdpi="96"
   inkscape:export-ydpi="96"
   xmlns:inkscape="http://www.inkscape.org/namespaces/inkscape"
   xmlns:sodipodi="http://sodipodi.sourceforge.net/DTD/sodipodi-0.dtd"
   xmlns="http://www.w3.org/2000/svg"
   xmlns:svg="http://www.w3.org/2000/svg">
  <sodipodi:namedview
     id="namedview1"
     pagecolor="#ffffff"
     bordercolor="#000000"
     borderopacity="0.25"
     inkscape:showpageshadow="2"
     inkscape:pageopacity="0.0"
     inkscape:pagecheckerboard="0"
     inkscape:deskcolor="#d1d1d1"
     inkscape:document-units="px" />
  <defs
     id="defs1" />
  <g
     inkscape:label="Layer 1"
     inkscape:groupmode="layer"
     id="layer1"
     transform="translate(-3.3603072,-36.975746)">
    <path
       style="fill:#808080;stroke:#e9e9e9;stroke-width:3.37085;stroke-dasharray:none;stroke-opacity:1"
       d="m 6.1183478,51.191793 c -0.5704834,-1.753454 0.5431906,-3.392739 1.3031788,-4.959343 0.9826573,-2.025603 1.7853459,-3.556552 3.9095364,-4.711375 0.889997,-0.483849 1.520566,-0.964437 2.345722,-1.487802 0.216862,-0.137548 0.529054,0.06014 0.781908,0 0.173757,-0.08266 0.347514,-0.165312 0.521271,-0.247968 0,-0.08265 -0.07771,-0.211002 0,-0.247967 0.155414,-0.07393 0.365859,0.07393 0.521272,0 0.07771,-0.03696 0,-0.165311 0,-0.247967 0.173757,-0.08266 0.336973,-0.18952 0.521271,-0.247967 1.601498,-0.507884 4.088324,-0.410886 5.473352,0.247967 0.625526,0.29756 1.720196,-0.297561 2.345721,0 0.8575,0.40791 1.493312,-0.02236 2.345722,0.247967 0.445227,0.141195 3.082904,1.457409 3.12763,1.487802 0.552153,0.375226 1.00793,0.869631 1.563814,1.239836 0.750386,0.499739 1.904058,1.04236 2.606358,1.487804 0.400978,0.254324 0.641565,0.737543 1.042543,0.991867 0.521718,0.330906 1.01956,0.980936 1.563815,1.239836 0.07771,0.03696 0.199203,-0.05845 0.260635,0 0.06143,0.05845 -0.06143,0.189521 0,0.247967 0.137368,0.13069 0.383905,0.117277 0.521272,0.247968 0.122865,0.116892 -0.122864,0.379041 0,0.495934 0.169913,0.161654 1.033922,0.479531 1.042543,0.495934 0.07771,0.147859 -0.09638,0.358387 0,0.495934 0.16011,0.228491 0.891463,0.352198 1.042543,0.495934 0.06143,0.05845 -0.03885,0.174038 0,0.247967 0.176479,0.335803 2.468881,1.794356 2.866994,1.983737 1.714151,0.815417 5.083223,0.495935 7.037166,0.495935 1.610453,0 2.886574,-0.534019 4.430807,-0.743902 0.745942,-0.101382 1.614315,0.173964 2.345723,0 0.830107,-0.197439 1.544547,-0.706031 2.345721,-0.991869 2.266065,-0.808468 4.489516,-1.726491 6.77653,-2.47967 1.754014,-0.577647 3.171449,-0.495934 4.95208,-0.495934 0.521272,0 1.069293,0.156827 1.563815,0 0.437666,-0.138798 2.267995,-1.829778 2.606358,-1.983737 2.2023,-1.002078 6.344465,-2.772316 9.122251,-2.975606 0.22562,-0.01651 4.319543,-0.267463 4.952081,0 0.640067,0.270648 1.189725,0.710062 1.824449,0.991869 2.99787,1.331004 5.983782,2.7242 9.122253,3.719506 2.205487,0.699429 4.897967,0.966129 7.037167,1.983738 0.0425,0.02019 2.35634,3.660418 2.60635,4.21544 0.0684,0.151946 -0.0684,0.343989 0,0.495935 0.45435,1.008605 0.95049,1.356426 1.56382,2.231703 0.45464,0.648811 0.91071,1.299179 1.30318,1.983737 0.13156,0.229465 0.10823,0.526421 0.26063,0.743902 0.20447,0.291782 0.59904,0.439427 0.78191,0.743902 0.17772,0.295895 0.13486,0.672768 0.26064,0.991867 0.17375,0.330623 0.34751,0.661246 0.52127,0.991869 0.0869,0.08266 0.20569,0.143416 0.26064,0.247967 0.24952,0.474804 0.0697,4.52576 0,5.455277 -0.047,0.625037 -0.12333,5.011348 -0.78191,5.951211 -0.56271,0.803036 0.0324,-0.103202 -0.52127,0.247967 -0.46286,0.293577 -0.89156,0.635853 -1.30318,0.991869 -0.54548,0.471783 -1.06379,0.972443 -1.56382,1.487802 -2.52748,2.605016 -3.70371,3.621599 -7.03716,5.207309 -1.06962,0.508814 -0.4951,0.37683 -1.30318,0.991869 -0.87111,0.663009 -2.070627,1.186115 -3.127631,1.487803 -1.479813,0.422365 -2.97526,-0.02899 -4.430807,0.247966 -0.28985,0.05516 -1.162917,0.605207 -1.563816,0.743903 -1.252692,0.433382 -2.852467,0.912795 -4.170172,1.239835 -1.297688,0.322072 -4.238827,1.147033 -5.994623,1.239835 -1.352369,0.07148 -2.798818,-0.09319 -4.170172,0 -3.453437,0.234685 -6.378546,0.248463 -9.904159,0 -0.698524,-0.04922 -1.388124,-0.181659 -2.085086,-0.247967 -0.172895,-0.01645 -0.361563,0.06512 -0.521271,0 -1.678835,-0.684527 -3.246018,-1.611092 -4.952081,-2.231703 -2.810928,-1.022527 -6.135252,-1.18275 -8.861616,-2.479672 -0.669895,-0.318667 -2.929979,-2.642226 -3.388265,-3.223572 -0.23312,-0.295718 -0.278557,-0.703222 -0.521271,-0.991869 -0.448059,-0.532851 -0.626728,-0.03698 -1.042543,-0.247967 -2.375051,-1.205124 -3.897946,-2.441885 -6.515895,-2.975606 -3.218252,-0.656105 -6.086221,-1.016427 -8.861616,0.743901 -0.260635,0.165312 -0.491067,0.385254 -0.781907,0.495935 -0.161329,0.06139 -0.424889,-0.137547 -0.521272,0 -0.192766,0.275095 0.266969,0.780209 0,0.991869 -0.494011,0.391666 -1.538857,1.130171 -2.345722,1.239836 -0.151164,0.02054 -2.446944,0.151663 -2.606357,0 -0.221498,-0.210733 -0.299774,-0.533171 -0.521272,-0.743903 -0.777957,-0.740143 -0.246962,-0.04439 -0.781907,-0.247966 -0.794455,-0.302336 -1.5471,-0.699637 -2.345722,-0.991868 C 18.188176,74.224999 16.098953,73.667055 13.676785,72.021031 12.530236,71.241874 11.369053,70.363769 10.28852,69.54136 9.9047538,69.24927 9.6855518,68.758595 9.245977,68.549491 c -0.077707,-0.03696 -0.2124441,0.06878 -0.2606357,0 C 8.8329461,68.332009 8.8843915,68.018283 8.7247055,67.80559 8.4390504,67.425112 7.9838893,67.182799 7.6821624,66.813721 7.1052206,66.107994 6.6018378,65.348665 6.1183478,64.582017 c -0.3071133,-0.486976 0.1243933,-1.392003 0,-1.983737 -0.1310115,-0.623217 -0.3170379,-1.15285 -0.5212716,-1.73577 -0.3645497,-1.04049 0.4748584,-3.311886 0,-4.21544 -0.5964138,-1.134849 0.1080258,1.052227 -0.5212715,-0.743901 -0.027699,-0.07906 -0.050829,-3.399003 0,-3.471541 0.3085766,-0.440366 0.6950287,-0.826557 1.0425431,-1.239835 z"
       id="path7" />
  </g>
</svg>
