<?xml version="1.0" encoding="UTF-8" standalone="no"?>
<!-- Created with Inkscape (http://www.inkscape.org/) -->

<svg
   width="113.9082"
   height="48.422401"
   viewBox="0 0 113.9082 48.422401"
   version="1.1"
   id="svg1"
   inkscape:export-filename="rivers.svg"
   inkscape:export-xdpi="96"
   inkscape:export-ydpi="96"
   xmlns:inkscape="http://www.inkscape.org/namespaces/inkscape"
   xmlns:sodipodi="http://sodipodi.sourceforge.net/DTD/sodipodi-0.dtd"
   xmlns="http://www.w3.org/2000/svg"
   xmlns:svg="http://www.w3.org/2000/svg">
  <sodipodi:namedview
     id="namedview1"
     pagecolor="#ffffff"
     bordercolor="#000000"
     borderopacity="0.25"
     inkscape:showpageshadow="2"
     inkscape:pageopacity="0.0"
     inkscape:pagecheckerboard="0"
     inkscape:deskcolor="#d1d1d1"
     inkscape:document-units="px" />
  <defs
     id="defs1" />
  <g
     inkscape:label="Layer 1"
     inkscape:groupmode="layer"
     id="layer1"
     transform="translate(-4.006907,-37.192078)">
    <path
       id="path1"
       style="fill:#0000ff;stroke-width:3.34661"
       d="M 35.989329,37.192078 A 31.983351,25.204714 0 0 0 4.0069069,62.393249 31.983351,25.204714 0 0 0 5.118235,68.877625 h 8.564453 A 23.339201,25.564781 0 0 1 36.856516,45.830749 23.339201,25.564781 0 0 1 57.616282,59.979187 31.990705,25.198919 0.35602248 0 0 57.92097,64.047546 31.990705,25.198919 0.35602248 0 0 94.278391,85.350281 31.990705,25.198919 0.35602248 0 0 117.91511,72.131531 H 102.72175 A 26.003739,22.945222 63.661298 0 1 91.803782,76.897156 26.003739,22.945222 63.661298 0 1 67.831126,64.057312 31.983351,25.204714 0 0 0 67.979563,62.393249 31.983351,25.204714 0 0 0 35.989329,37.192078 Z" />
  </g>
</svg>
